<?xml version="1.0" standalone="no"?>
<!DOCTYPE svg PUBLIC "-//W3C//DTD SVG 20010904//EN"
 "http://www.w3.org/TR/2001/REC-SVG-20010904/DTD/svg10.dtd">
<svg version="1.0" xmlns="http://www.w3.org/2000/svg"
 width="500.000000pt" height="500.000000pt" viewBox="0 0 500.000000 500.000000"
 preserveAspectRatio="xMidYMid meet">
<metadata>
Created by potrace 1.14, written by Peter Selinger 2001-2017
</metadata>
<g transform="translate(0.000000,500.000000) scale(0.100000,-0.100000)"
fill="#000000" stroke="none">
<path d="M2103 3875 c-46 -20 -66 -65 -71 -165 -3 -50 -11 -94 -19 -107 -8
-12 -47 -47 -86 -77 -64 -48 -95 -65 -172 -91 -18 -6 -17 -8 13 -24 43 -22
168 -145 203 -200 32 -50 36 -76 14 -85 -11 -4 -13 -11 -6 -28 16 -42 43 -140
39 -143 -2 -3 -12 11 -23 30 -27 51 -53 47 -57 -9 l-3 -45 -85 52 -85 51 -105
-2 c-58 -2 -159 -12 -226 -23 -66 -11 -127 -19 -135 -17 -11 2 -14 -10 -12
-61 1 -51 6 -68 25 -88 36 -39 57 -47 84 -32 18 9 35 10 68 2 32 -7 48 -7 57
1 8 8 13 8 16 -1 3 -7 9 -13 14 -13 6 0 8 3 6 8 -3 4 68 7 158 7 90 0 167 -3
171 -7 4 -5 21 -8 38 -8 24 0 27 3 16 10 -12 8 -11 10 7 10 12 0 25 -5 29 -11
13 -22 -25 -42 -98 -49 -91 -10 -523 7 -560 21 -48 19 -63 55 -63 146 0 70 -2
83 -17 87 -11 2 -18 -1 -18 -10 0 -12 -61 -14 -378 -14 -246 0 -389 -3 -409
-10 -34 -12 -40 -25 -50 -121 l-6 -62 119 7 c65 3 138 8 160 11 39 4 43 3 67
-34 l26 -39 -117 -27 c-240 -55 -250 -59 -239 -89 9 -22 21 -21 187 18 l145
33 43 -40 c23 -23 42 -44 42 -48 0 -3 -26 -20 -57 -37 -63 -34 -56 -39 23 -18
l50 13 22 -34 22 -33 -212 -106 c-195 -96 -251 -134 -201 -134 10 0 109 49
220 110 l200 109 82 -25 c44 -14 81 -26 81 -28 0 -6 -212 -162 -273 -200 -95
-61 -198 -106 -240 -106 -26 0 -37 -4 -35 -12 7 -20 75 -34 107 -21 23 8 33 7
52 -8 44 -33 105 -44 172 -30 114 24 219 88 393 243 51 46 118 99 149 118 64
40 194 170 244 245 l33 50 -43 -50 c-124 -144 -242 -225 -327 -225 -20 0 -23
-3 -14 -12 7 -7 12 -17 12 -22 0 -26 -302 -266 -384 -305 -46 -23 -51 -23
-117 -11 -121 23 -123 18 90 183 l191 146 86 -10 c92 -12 126 -7 105 14 -6 7
-26 17 -43 23 l-32 10 65 36 c91 51 204 133 250 180 47 49 53 75 7 31 -101
-96 -285 -203 -386 -224 -54 -11 -132 0 -132 19 0 4 42 25 93 46 123 53 305
143 342 170 53 38 75 41 274 38 l194 -4 -74 -75 c-41 -42 -65 -72 -54 -68 94
36 135 28 135 -28 0 -23 -13 -43 -57 -88 l-58 -57 35 -8 c51 -13 63 -44 45
-121 -19 -81 -56 -162 -89 -195 -16 -15 -44 -29 -69 -34 -23 -4 -37 -9 -32
-10 12 -5 254 42 262 50 3 3 8 26 10 51 3 25 9 47 13 50 3 2 14 -27 24 -65 35
-134 184 -398 271 -480 22 -21 28 -22 62 -12 79 24 192 137 165 164 -8 8 -13
71 -14 192 l-1 181 -8 -198 c-4 -110 -10 -201 -13 -204 -19 -19 -28 61 -50
445 l-6 92 98 1 c53 0 104 2 113 4 31 6 42 -13 49 -82 l7 -68 2 72 c0 39 6 75
11 78 7 4 10 -102 10 -310 0 -351 3 -337 -64 -267 -50 53 -77 240 -57 388 11
80 8 119 -10 108 -11 -7 -11 -244 1 -344 7 -64 6 -76 -8 -87 -15 -11 -16 -14
-2 -40 22 -39 89 -88 157 -113 l58 -21 22 27 c33 42 138 230 171 308 l29 68 7
-36 c4 -20 4 -41 1 -46 -3 -5 5 -16 19 -25 13 -9 26 -29 30 -45 3 -16 13 -36
23 -45 10 -8 34 -28 53 -44 30 -25 33 -31 23 -52 -6 -14 -21 -29 -34 -36 -13
-6 -59 -27 -101 -46 -43 -20 -89 -47 -102 -60 -23 -23 -34 -25 -140 -28 -97
-4 -119 -7 -143 -25 -31 -23 -43 -72 -21 -85 18 -12 85 -11 107 1 17 9 91 -4
91 -16 0 -14 -32 -78 -53 -106 -24 -32 -77 -161 -77 -186 0 -11 44 -12 88 -3
8 2 64 140 72 178 11 45 33 84 97 166 34 43 57 57 223 137 132 64 196 90 223
90 29 0 37 4 37 18 0 25 -36 57 -90 81 -69 31 -128 77 -159 126 -20 31 -45 54
-82 73 -30 16 -53 35 -52 43 13 96 70 232 145 342 l39 57 -24 9 c-43 17 -77
68 -77 116 0 56 8 75 31 75 10 0 19 5 19 11 0 20 -50 76 -85 95 -34 18 -37 21
-39 46 -1 16 91 21 121 6 17 -8 37 -8 78 2 44 10 57 11 70 0 9 -8 24 -10 42
-5 48 14 52 13 64 -1 15 -19 38 -18 62 3 18 17 19 17 28 0 12 -21 32 -22 48
-3 12 14 50 19 49 6 -4 -43 28 -39 73 9 33 35 59 103 59 155 0 25 -56 35 -284
48 l-228 13 -60 -34 c-54 -30 -62 -32 -70 -17 -5 9 -17 16 -27 16 -10 0 -30
14 -44 30 -15 17 -31 30 -35 30 -5 0 -17 -27 -27 -59 l-18 -59 -204 -80 -204
-79 -232 70 c-128 38 -236 72 -240 76 -7 7 1 10 41 13 9 1 98 -25 197 -57 99
-31 198 -58 220 -58 27 -1 82 16 166 51 234 95 228 92 235 131 6 28 3 38 -15
52 -12 10 -21 21 -19 26 2 4 -10 14 -27 23 -16 8 -32 18 -33 23 -2 4 -8 5 -13
1 -5 -3 -9 0 -9 6 0 6 -4 9 -9 6 -4 -3 -17 1 -27 9 -10 8 -32 15 -47 15 -16 0
-26 3 -23 8 2 4 -20 7 -51 7 -30 -1 -57 3 -60 8 -2 4 -10 4 -16 0 -7 -5 -51
-9 -99 -8 -49 0 -88 -3 -88 -7 0 -5 -14 -8 -31 -8 -40 0 -109 -20 -109 -32 0
-5 -4 -6 -10 -3 -5 3 -19 -1 -31 -9 -12 -8 -28 -12 -37 -9 -10 4 -13 2 -8 -5
4 -7 1 -12 -8 -12 -9 0 -16 -7 -16 -15 0 -8 -6 -15 -14 -15 -8 0 -16 -5 -18
-12 -7 -21 -33 -16 -45 8 -10 22 -8 26 15 38 15 8 90 46 168 85 l140 71 170 0
c127 0 174 -3 189 -14 70 -48 211 -117 232 -113 13 2 26 0 29 -4 8 -14 24 -10
24 6 0 15 63 95 122 153 18 19 63 52 100 74 37 22 66 44 63 48 -3 5 -42 26
-88 48 -84 41 -165 110 -193 164 -9 16 -17 71 -21 129 -7 111 -13 122 -81 135
-37 7 -37 6 -17 -32 20 -38 19 -94 -2 -123 -15 -22 -20 -23 -87 -17 -39 3 -95
12 -123 20 -49 13 -53 13 -53 -3 0 -40 107 -102 210 -121 61 -12 70 -18 140
-85 41 -39 90 -77 108 -84 17 -8 32 -17 32 -21 0 -11 -54 -54 -130 -103 -36
-23 -71 -54 -77 -68 -24 -51 -33 -51 -122 -2 l-83 45 26 27 c33 34 33 56 0 86
-18 16 -24 32 -22 52 3 28 3 28 -62 31 -64 3 -66 4 -85 40 -28 52 -52 53 -73
3 -17 -40 -18 -41 -68 -41 -53 0 -84 -19 -84 -53 0 -9 -9 -26 -20 -37 -25 -25
-25 -50 0 -83 l20 -25 -23 -14 c-12 -8 -56 -30 -99 -50 l-76 -36 -17 43 c-22
60 -79 131 -110 139 -42 11 -30 39 48 112 40 38 86 86 102 106 29 36 34 38
112 47 107 13 172 46 173 88 0 21 -48 27 -75 9 -14 -9 -45 -16 -73 -16 -27 0
-72 -7 -101 -16 -29 -8 -55 -13 -58 -10 -3 3 -8 25 -10 49 -4 37 -1 52 21 83
42 62 33 77 -31 49z m-393 -873 c0 -4 -4 -12 -9 -17 -5 -6 -16 -34 -26 -62 -9
-29 -18 -53 -21 -53 -2 0 -4 20 -4 44 0 29 7 52 21 70 20 25 39 34 39 18z
m-121 -46 c-6 -22 -8 -54 -4 -72 4 -26 2 -34 -8 -34 -32 0 -36 86 -6 124 27
34 31 30 18 -18z m1705 22 c21 -34 30 -106 16 -123 -20 -24 -30 -17 -24 13 5
26 -3 70 -21 115 -10 25 12 21 29 -5z m-1807 -29 c-16 -33 -18 -45 -8 -66 6
-14 9 -28 6 -32 -9 -9 -35 29 -35 52 0 28 30 87 45 87 9 0 7 -12 -8 -41z
m1701 6 c7 -14 12 -34 12 -44 0 -22 -37 -71 -53 -71 -8 0 -7 4 1 12 7 7 12 38
12 70 0 62 10 73 28 33z m233 -35 c10 -32 10 -45 -1 -65 -20 -38 -30 -30 -24
18 5 31 1 53 -10 76 -17 32 -17 32 3 22 11 -6 26 -29 32 -51z m180 -1 c9 -30
9 -45 -2 -71 l-14 -33 -6 65 c-3 36 -9 74 -14 85 -8 18 -7 19 8 6 9 -7 22 -31
28 -52z m-1796 -58 c-10 -10 -40 16 -43 37 -2 11 5 33 15 48 l18 28 8 -54 c4
-29 5 -56 2 -59z m1700 96 c11 15 13 15 24 -5 10 -18 8 -30 -7 -66 -25 -56
-43 -68 -35 -23 3 20 -2 49 -11 72 -16 38 -16 39 0 23 16 -16 18 -16 29 -1z
m-1605 -83 c0 -21 -4 -33 -10 -29 -5 3 -10 22 -10 41 0 21 4 33 10 29 6 -3 10
-22 10 -41z m-918 -68 c-3 -5 1 -5 9 0 20 12 38 14 45 3 3 -5 4 -9 2 -9 -2 0
-46 -9 -96 -20 -98 -21 -122 -18 -141 18 -9 17 -2 18 89 18 56 -1 96 -5 92
-10z m253 -4 c3 -9 2 -18 -2 -22 -4 -4 -73 -35 -153 -70 -80 -34 -172 -76
-204 -92 -33 -16 -54 -23 -48 -15 10 12 7 21 -18 47 -17 18 -29 38 -27 44 3
10 401 123 433 123 7 0 16 -7 19 -15z m104 -68 c6 -6 6 -6 -139 -88 -74 -42
-159 -85 -188 -96 -61 -23 -125 -26 -141 -6 -9 11 26 29 196 102 115 48 212
91 218 96 8 7 43 2 54 -8z m855 -884 c4 -30 10 -68 13 -85 5 -27 4 -29 -11
-15 -20 20 -53 243 -62 421 -7 120 -6 127 12 131 18 3 20 -9 30 -197 6 -110
15 -225 18 -255z m60 368 c3 -50 6 -128 6 -172 0 -45 7 -144 15 -221 19 -180
20 -174 -6 -149 -34 34 -69 294 -69 514 0 114 0 116 24 118 22 1 23 -2 30 -90z
m86 2 c0 -133 19 -389 34 -452 13 -57 13 -57 -15 -84 -16 -15 -31 -25 -34 -22
-7 7 -32 309 -40 487 -7 149 -6 157 35 157 19 0 20 -6 20 -86z m417 -109 c-4
-102 -14 -242 -22 -311 -8 -69 -15 -128 -15 -132 0 -5 -10 -8 -21 -8 l-22 0 5
316 c4 226 9 319 18 324 6 4 23 5 37 2 l26 -5 -6 -186z m110 45 c-6 -141 -25
-268 -52 -348 -13 -38 -13 -41 0 -24 17 23 19 18 5 -18 -5 -14 -15 -26 -21
-26 -7 0 -18 -8 -25 -17 -12 -16 -13 -12 -9 27 6 51 25 443 25 506 0 36 3 43
23 46 12 2 31 2 41 -1 18 -4 19 -12 13 -145z m53 52 c0 -53 -16 -211 -26 -258
-4 -19 -3 -22 5 -10 6 8 11 10 11 4 0 -6 -12 -24 -26 -40 l-27 -28 7 44 c16
108 26 221 26 293 0 70 2 77 15 63 10 -9 15 -34 15 -68z m-791 -297 c6 -41 10
-75 8 -77 -2 -2 -18 21 -36 51 -25 41 -35 73 -43 132 -13 109 -7 201 17 238
l20 29 11 -150 c7 -83 17 -183 23 -223z m826 192 c-3 -19 -9 -33 -12 -30 -3 3
-2 25 2 49 5 24 10 37 12 30 3 -7 2 -29 -2 -49z"/>
<path d="M3742 3003 c-22 -4 -22 -7 -16 -83 6 -68 4 -84 -15 -123 -27 -55 -53
-67 -149 -67 -88 1 -408 34 -434 45 -13 5 -18 3 -18 -8 0 -9 23 -24 59 -39 48
-19 88 -49 211 -163 143 -133 149 -140 121 -143 -48 -5 -90 21 -221 136 -68
61 -128 108 -132 106 -4 -3 -8 -15 -8 -27 0 -15 29 -46 95 -101 53 -44 94 -84
92 -90 -2 -6 -32 -12 -66 -14 -43 -2 -61 -7 -58 -15 2 -8 33 -13 88 -15 84 -3
84 -3 98 -34 27 -61 302 -302 397 -348 47 -23 99 -25 134 -5 25 14 24 14 -18
15 -81 0 -184 71 -349 239 -57 58 -103 109 -103 113 0 4 33 8 74 8 68 0 75 2
82 22 5 18 1 27 -21 43 -54 38 -165 137 -165 145 0 5 -20 23 -44 39 -84 58
-77 62 117 59 198 -3 212 1 249 77 21 43 38 51 38 16 0 -15 27 -23 180 -52
167 -31 180 -35 180 -55 0 -57 -53 -55 -250 8 -184 59 -168 57 -143 23 17 -24
50 -39 184 -86 179 -62 194 -75 131 -112 -30 -18 -39 -19 -88 -8 -29 7 -100
36 -156 64 -57 28 -107 53 -113 55 -5 2 44 -33 110 -77 66 -45 125 -83 130
-85 6 -2 2 -12 -8 -22 -42 -44 -168 -5 -311 97 l-71 51 70 -64 c38 -35 86 -77
105 -95 l35 -32 -52 6 -52 6 -18 -38 c-15 -32 -16 -38 -3 -45 8 -5 94 -68 190
-139 96 -72 197 -142 224 -156 56 -28 117 -32 156 -10 24 14 24 14 -20 15 -52
0 -138 38 -232 101 -75 51 -252 185 -266 202 -8 9 10 11 80 9 87 -3 93 -5 142
-41 28 -21 129 -93 224 -159 l174 -122 59 0 c35 0 75 7 97 17 l37 17 -75 6
c-49 4 -94 15 -130 31 -65 31 -193 116 -309 208 -72 57 -80 66 -60 69 13 2 45
12 71 23 l47 18 217 -129 c135 -81 227 -130 244 -130 23 0 60 26 60 42 0 3
-22 8 -48 12 -55 7 -185 70 -344 165 l-106 65 36 42 37 42 38 -19 c65 -33 198
-79 302 -105 121 -29 118 -29 105 -4 -6 11 -21 20 -34 20 -13 0 -43 7 -67 15
-57 20 -309 147 -309 156 0 4 7 12 15 19 8 7 15 28 15 47 l0 35 53 -7 c28 -4
115 -23 191 -41 76 -19 141 -32 143 -30 12 12 -11 24 -55 29 -27 3 -113 27
-191 52 l-141 46 0 39 0 39 191 0 c119 -1 195 3 201 9 6 6 11 29 11 52 0 48
-28 91 -64 101 -13 3 -192 4 -396 1 -342 -5 -373 -4 -373 11 0 10 -3 16 -7 16
-5 -1 -18 -4 -31 -6z m392 -185 c-5 -8 -2 -9 9 -5 21 8 22 -3 3 -28 -13 -18
-17 -18 -117 -1 -57 9 -108 21 -112 25 -5 5 39 8 98 7 59 -1 109 2 111 6 3 5
7 8 10 8 3 0 2 -5 -2 -12z"/>
<path d="M545 2480 c-70 -20 -90 -29 -67 -29 34 -1 150 34 167 50 11 11 19 13
-100 -21z"/>
<path d="M1635 2483 c-16 -9 -50 -21 -74 -28 -42 -10 -47 -16 -80 -81 -66
-128 -146 -218 -258 -288 -24 -14 -43 -33 -43 -41 0 -35 142 61 222 150 37 42
96 132 115 176 7 16 23 29 40 33 34 9 89 49 103 76 13 24 13 24 -25 3z"/>
<path d="M3166 2384 c-6 -14 92 -138 264 -334 29 -33 150 -93 176 -88 27 5 29
28 3 28 -12 0 -44 14 -70 31 -57 36 -215 199 -282 289 -74 102 -79 106 -91 74z"/>
<path d="M1522 2156 c-101 -102 -127 -136 -104 -136 13 0 138 107 164 142 29
39 61 98 56 104 -3 2 -55 -47 -116 -110z"/>
<path d="M3074 2236 c-3 -9 -7 -30 -8 -47 -1 -28 9 -41 79 -102 87 -76 145
-110 178 -105 16 2 3 16 -64 64 -105 77 -173 148 -166 175 6 23 -11 36 -19 15z"/>
<path d="M1940 2076 c0 -7 -18 -30 -40 -50 -22 -20 -40 -42 -40 -48 0 -7 -25
-28 -55 -46 -35 -21 -63 -47 -75 -70 -32 -60 -58 -85 -97 -91 -45 -8 -64 -34
-41 -57 18 -18 111 -42 210 -52 57 -7 77 -15 137 -55 38 -27 99 -79 134 -117
56 -59 70 -82 105 -171 22 -57 46 -124 53 -149 15 -54 32 -70 76 -70 28 0 33
4 33 23 0 27 -17 47 -40 47 -13 0 -20 24 -35 118 -10 64 -22 130 -26 146 l-8
29 104 -5 105 -5 -6 26 c-9 41 -37 57 -106 64 -114 11 -379 114 -441 171 -41
38 -35 58 21 78 32 12 52 26 60 43 6 14 20 25 29 25 45 1 45 13 2 123 -39 97
-59 130 -59 93z"/>
</g>
</svg>
